<svg fill="#000000" xmlns="http://www.w3.org/2000/svg"  viewBox="0 0 64 64" width="128px" height="128px"><path d="M 46 6 C 34 6 36.598 15.9205 35 20.4375 C 33.846068 23.699543 24.751283 32.968136 17.220703 40.287109 C 16.509172 40.106219 15.767862 40 15 40 C 10.029 40 6 44.029 6 49 C 6 53.971 10.029 58 15 58 C 19.971 58 24 53.971 24 49 C 24 48.212272 23.887327 47.452744 23.697266 46.724609 C 30.422232 40.356009 38.506891 32.85377 40.607422 31.595703 C 42.005422 30.757703 44 31 50 31 C 54.042 31 58.681 25.554 60 22 L 59 19 C 56.299 20.701 53.597484 22.402516 50.896484 24.103516 C 50.122484 23.909516 48.109187 23.66175 45.992188 20.96875 C 43.388188 17.65675 44 13 44 13 L 52 8 L 50 6 L 46 6 z M 15 45 C 17.209 45 19 46.791 19 49 C 19 51.209 17.209 53 15 53 C 12.791 53 11 51.209 11 49 C 11 46.791 12.791 45 15 45 z"/></svg>